<svg width="226" height="109" viewBox="0 0 226 109" fill="none" xmlns="http://www.w3.org/2000/svg">
<g filter="url(#filter0_d_795_33)">
<path d="M201.352 99V29.1818H220.716V99H201.352ZM211.08 20.1818C208.201 20.1818 205.731 19.2273 203.67 17.3182C201.64 15.3788 200.625 13.0606 200.625 10.3636C200.625 7.69697 201.64 5.4091 203.67 3.50001C205.731 1.56061 208.201 0.590912 211.08 0.590912C213.958 0.590912 216.413 1.56061 218.443 3.50001C220.504 5.4091 221.534 7.69697 221.534 10.3636C221.534 13.0606 220.504 15.3788 218.443 17.3182C216.413 19.2273 213.958 20.1818 211.08 20.1818Z" fill="#222222"/>
</g>
<g filter="url(#filter1_d_795_33)">
<path d="M145.705 100.136C140.402 100.136 135.598 98.7727 131.295 96.0455C127.023 93.2879 123.629 89.2424 121.114 83.9091C118.629 78.5455 117.386 71.9697 117.386 64.1818C117.386 56.1818 118.674 49.5303 121.25 44.2273C123.826 38.8939 127.25 34.9091 131.523 32.2727C135.826 29.6061 140.538 28.2727 145.659 28.2727C149.568 28.2727 152.826 28.9394 155.432 30.2727C158.068 31.5758 160.189 33.2121 161.795 35.1818C163.432 37.1212 164.674 39.0303 165.523 40.9091H166.114V5.90909H185.432V99H166.341V87.8182H165.523C164.614 89.7576 163.326 91.6818 161.659 93.5909C160.023 95.4697 157.886 97.0303 155.25 98.2727C152.644 99.5152 149.462 100.136 145.705 100.136ZM151.841 84.7273C154.962 84.7273 157.598 83.8788 159.75 82.1818C161.932 80.4545 163.598 78.0455 164.75 74.9545C165.932 71.8636 166.523 68.2424 166.523 64.0909C166.523 59.9394 165.947 56.3333 164.795 53.2727C163.644 50.2121 161.977 47.8485 159.795 46.1818C157.614 44.5151 154.962 43.6818 151.841 43.6818C148.659 43.6818 145.977 44.5454 143.795 46.2727C141.614 48 139.962 50.3939 138.841 53.4545C137.72 56.5151 137.159 60.0606 137.159 64.0909C137.159 68.1515 137.72 71.7424 138.841 74.8636C139.992 77.9545 141.644 80.3788 143.795 82.1364C145.977 83.8636 148.659 84.7273 151.841 84.7273Z" fill="#222222"/>
</g>
<g filter="url(#filter2_d_795_33)">
<path d="M85.1023 99V29.1818H104.466V99H85.1023ZM94.8295 20.1818C91.9508 20.1818 89.4811 19.2273 87.4205 17.3182C85.3902 15.3788 84.375 13.0606 84.375 10.3636C84.375 7.69697 85.3902 5.4091 87.4205 3.50001C89.4811 1.56061 91.9508 0.590912 94.8295 0.590912C97.7083 0.590912 100.163 1.56061 102.193 3.50001C104.254 5.4091 105.284 7.69697 105.284 10.3636C105.284 13.0606 104.254 15.3788 102.193 17.3182C100.163 19.2273 97.7083 20.1818 94.8295 20.1818Z" fill="#222222"/>
</g>
<g filter="url(#filter3_d_795_33)">
<path d="M4.09091 99V5.90909H23.4545V40.9091H24.0455C24.8939 39.0303 26.1212 37.1212 27.7273 35.1818C29.3636 33.2121 31.4849 31.5758 34.0909 30.2727C36.7273 28.9394 40 28.2727 43.9091 28.2727C49 28.2727 53.697 29.6061 58 32.2727C62.303 34.9091 65.7424 38.8939 68.3182 44.2273C70.8939 49.5303 72.1818 56.1818 72.1818 64.1818C72.1818 71.9697 70.9242 78.5455 68.4091 83.9091C65.9242 89.2424 62.5303 93.2879 58.2273 96.0455C53.9546 98.7727 49.1667 100.136 43.8636 100.136C40.1061 100.136 36.9091 99.5152 34.2727 98.2727C31.6667 97.0303 29.5303 95.4697 27.8636 93.5909C26.197 91.6818 24.9242 89.7576 24.0455 87.8182H23.1818V99H4.09091ZM23.0455 64.0909C23.0455 68.2424 23.6212 71.8636 24.7727 74.9545C25.9242 78.0455 27.5909 80.4545 29.7727 82.1818C31.9546 83.8788 34.6061 84.7273 37.7273 84.7273C40.8788 84.7273 43.5455 83.8636 45.7273 82.1364C47.9091 80.3788 49.5606 77.9545 50.6818 74.8636C51.8333 71.7424 52.4091 68.1515 52.4091 64.0909C52.4091 60.0606 51.8485 56.5151 50.7273 53.4545C49.6061 50.3939 47.9546 48 45.7727 46.2727C43.5909 44.5454 40.9091 43.6818 37.7273 43.6818C34.5758 43.6818 31.9091 44.5151 29.7273 46.1818C27.5758 47.8485 25.9242 50.2121 24.7727 53.2727C23.6212 56.3333 23.0455 59.9394 23.0455 64.0909Z" fill="#222222"/>
</g>
<defs>
<filter id="filter0_d_795_33" x="196.625" y="0.590912" width="28.9091" height="106.409" filterUnits="userSpaceOnUse" color-interpolation-filters="sRGB">
<feFlood flood-opacity="0" result="BackgroundImageFix"/>
<feColorMatrix in="SourceAlpha" type="matrix" values="0 0 0 0 0 0 0 0 0 0 0 0 0 0 0 0 0 0 127 0" result="hardAlpha"/>
<feOffset dy="4"/>
<feGaussianBlur stdDeviation="2"/>
<feComposite in2="hardAlpha" operator="out"/>
<feColorMatrix type="matrix" values="0 0 0 0 0 0 0 0 0 0 0 0 0 0 0 0 0 0 0.25 0"/>
<feBlend mode="normal" in2="BackgroundImageFix" result="effect1_dropShadow_795_33"/>
<feBlend mode="normal" in="SourceGraphic" in2="effect1_dropShadow_795_33" result="shape"/>
</filter>
<filter id="filter1_d_795_33" x="113.386" y="5.90909" width="76.0455" height="102.227" filterUnits="userSpaceOnUse" color-interpolation-filters="sRGB">
<feFlood flood-opacity="0" result="BackgroundImageFix"/>
<feColorMatrix in="SourceAlpha" type="matrix" values="0 0 0 0 0 0 0 0 0 0 0 0 0 0 0 0 0 0 127 0" result="hardAlpha"/>
<feOffset dy="4"/>
<feGaussianBlur stdDeviation="2"/>
<feComposite in2="hardAlpha" operator="out"/>
<feColorMatrix type="matrix" values="0 0 0 0 0 0 0 0 0 0 0 0 0 0 0 0 0 0 0.25 0"/>
<feBlend mode="normal" in2="BackgroundImageFix" result="effect1_dropShadow_795_33"/>
<feBlend mode="normal" in="SourceGraphic" in2="effect1_dropShadow_795_33" result="shape"/>
</filter>
<filter id="filter2_d_795_33" x="80.375" y="0.590912" width="28.9091" height="106.409" filterUnits="userSpaceOnUse" color-interpolation-filters="sRGB">
<feFlood flood-opacity="0" result="BackgroundImageFix"/>
<feColorMatrix in="SourceAlpha" type="matrix" values="0 0 0 0 0 0 0 0 0 0 0 0 0 0 0 0 0 0 127 0" result="hardAlpha"/>
<feOffset dy="4"/>
<feGaussianBlur stdDeviation="2"/>
<feComposite in2="hardAlpha" operator="out"/>
<feColorMatrix type="matrix" values="0 0 0 0 0 0 0 0 0 0 0 0 0 0 0 0 0 0 0.25 0"/>
<feBlend mode="normal" in2="BackgroundImageFix" result="effect1_dropShadow_795_33"/>
<feBlend mode="normal" in="SourceGraphic" in2="effect1_dropShadow_795_33" result="shape"/>
</filter>
<filter id="filter3_d_795_33" x="0.0909119" y="5.90909" width="76.0909" height="102.227" filterUnits="userSpaceOnUse" color-interpolation-filters="sRGB">
<feFlood flood-opacity="0" result="BackgroundImageFix"/>
<feColorMatrix in="SourceAlpha" type="matrix" values="0 0 0 0 0 0 0 0 0 0 0 0 0 0 0 0 0 0 127 0" result="hardAlpha"/>
<feOffset dy="4"/>
<feGaussianBlur stdDeviation="2"/>
<feComposite in2="hardAlpha" operator="out"/>
<feColorMatrix type="matrix" values="0 0 0 0 0 0 0 0 0 0 0 0 0 0 0 0 0 0 0.25 0"/>
<feBlend mode="normal" in2="BackgroundImageFix" result="effect1_dropShadow_795_33"/>
<feBlend mode="normal" in="SourceGraphic" in2="effect1_dropShadow_795_33" result="shape"/>
</filter>
</defs>
</svg>
